<svg xmlns="http://www.w3.org/2000/svg" xmlns:xlink="http://www.w3.org/1999/xlink" id="Group_76724" data-name="Group 76724" width="143.467" height="28.76" viewBox="0 0 143.467 28.76"><defs><clipPath id="clip-path"><rect id="Rectangle_7324" data-name="Rectangle 7324" width="143.467" height="28.76" fill="none"></rect></clipPath></defs><g id="Group_76723" data-name="Group 76723" transform="translate(0 0)" clip-path="url(#clip-path)"><path id="Path_82286" data-name="Path 82286" d="M41.576,3.2a11.874,11.874,0,0,0-4.557-1.083c-2.1,0-3.148.461-3.148,1.291,0,2.378,9.363.468,9.363,5.541,0,2.1-1.924,3.722-5.777,3.722a11.751,11.751,0,0,1-6.123-1.621l.848-1.892a10.33,10.33,0,0,0,5.289,1.479c2.284,0,3.51-.677,3.51-1.687,0-2.6-9.366-.659-9.366-5.413C31.615,1.49,33.523.08,36.974.08A11.563,11.563,0,0,1,42.433,1.4Z" transform="translate(5.155 0.013)"></path><path id="Path_82287" data-name="Path 82287" d="M50.058,12.75c-3.74,0-6.84-2.554-6.84-6.369,0-3.771,3.1-6.373,6.84-6.373,3.761,0,6.812,2.6,6.812,6.373,0,3.816-3.051,6.369-6.812,6.369m0-10.687a4.314,4.314,0,0,0-4.584,4.318,4.249,4.249,0,0,0,4.584,4.333,4.246,4.246,0,0,0,4.557-4.333,4.256,4.256,0,0,0-4.557-4.318" transform="translate(7.11 0.001)"></path><path id="Path_82288" data-name="Path 82288" d="M63.587,12.736c-3.93,0-6.89-2.549-6.89-6.369C56.7,2.612,59.7.008,63.587.008a8.545,8.545,0,0,1,5.463,1.8L67.891,3.571A6.614,6.614,0,0,0,63.65,2.1C60.783,2.1,59,3.953,59,6.366c0,2.483,1.8,4.287,4.677,4.287A6.777,6.777,0,0,0,67.983,9.2l1.162,1.768a8.806,8.806,0,0,1-5.558,1.765" transform="translate(9.327 0.001)"></path><rect id="Rectangle_7321" data-name="Rectangle 7321" width="2.182" height="12.036" transform="translate(80.846 0.378)"></rect><path id="Path_82289" data-name="Path 82289" d="M74.064,12.361V.325H84.757V2.316H76.244V5.24H82.86V7.226H76.244v3.147h8.888v1.989Z" transform="translate(12.185 0.053)"></path><path id="Path_82290" data-name="Path 82290" d="M91.527,2.3V12.361H89.355V2.3H84.567V.325H96.311V2.3Z" transform="translate(13.912 0.053)"></path><path id="Path_82291" data-name="Path 82291" d="M96.155,12.361V.325h10.691V2.316H98.334V5.24h6.621V7.226H98.334v3.147h8.888v1.989Z" transform="translate(15.819 0.053)"></path><path id="Path_82292" data-name="Path 82292" d="M38.086,24.393a7.971,7.971,0,0,0,3.351-.725v-3.5h2.116v4.672a10.085,10.085,0,0,1-5.561,1.652c-3.924,0-6.885-2.549-6.885-6.371,0-3.754,3.006-6.351,6.885-6.351a8.63,8.63,0,0,1,5.467,1.781L42.3,17.317a6.642,6.642,0,0,0-4.249-1.434,4.212,4.212,0,0,0-4.645,4.239c0,2.491,1.8,4.27,4.677,4.27" transform="translate(5.118 2.265)"></path><path id="Path_82293" data-name="Path 82293" d="M44.257,26.117V14.087H54.951v1.987H46.43V19h6.624v1.988H46.43v3.147h8.893v1.987Z" transform="translate(7.281 2.317)"></path><path id="Path_82294" data-name="Path 82294" d="M57.728,26.118H55.6V14.087H57.82l7.656,9.067.052-.016c-.128-2.28-.146-4.125-.146-5.91V14.087H67.51V26.118h-2.2l-7.629-9.066-.034.017c.084,1.783.084,4.894.084,5.906Z" transform="translate(9.147 2.317)"></path><path id="Path_82295" data-name="Path 82295" d="M68.459,26.117V14.087h10.69v1.987H70.632V19h6.623v1.988H70.632v3.147h8.9v1.987Z" transform="translate(11.262 2.317)"></path><path id="Path_82296" data-name="Path 82296" d="M85.623,21.691H82.117v4.426H79.939V14.087h7.545a3.716,3.716,0,0,1,4.056,3.835,3.676,3.676,0,0,1-3.368,3.705l3.495,4.49H88.94Zm1.628-2c1.361,0,2.131-.722,2.131-1.763a1.714,1.714,0,0,0-1.9-1.849H82.117v3.612Z" transform="translate(13.151 2.317)"></path><path id="Path_82297" data-name="Path 82297" d="M94.364,23.2l-1.346,2.922H90.661l5.72-12.032h2.287L104.4,26.118h-2.348L100.7,23.2Zm.906-1.954h4.522l-2.254-4.875Z" transform="translate(14.915 2.317)"></path><path id="Path_82298" data-name="Path 82298" d="M103.83,26.117V14.087H106V24.131h7.839v1.987Z" transform="translate(17.081 2.317)"></path><path id="Path_82299" data-name="Path 82299" d="M113.692,26.117V14.087h10.7v1.987H115.87V19h6.624v1.988H115.87v3.147h8.893v1.987Z" transform="translate(18.704 2.317)"></path><rect id="Rectangle_7322" data-name="Rectangle 7322" width="28.057" height="14.668" fill="#ed1a3a"></rect><rect id="Rectangle_7323" data-name="Rectangle 7323" width="28.057" height="14.381" transform="translate(0 14.379)"></rect><line id="Line_538" data-name="Line 538" x2="18.254" transform="translate(4.903 14.379)" fill="none" stroke="#fff" stroke-width="1.725"></line></g></svg>