<svg xmlns="http://www.w3.org/2000/svg" xmlns:xlink="http://www.w3.org/1999/xlink" id="Group_76742" data-name="Group 76742" width="164.351" height="29.105" viewBox="0 0 164.351 29.105"><defs><clipPath id="clip-path"><rect id="Rectangle_7347" data-name="Rectangle 7347" width="164.351" height="29.105" fill="none"></rect></clipPath></defs><g id="Group_76741" data-name="Group 76741" transform="translate(0 0)" clip-path="url(#clip-path)"><path id="Path_82373" data-name="Path 82373" d="M20.613,13.75V4.428c0-1.212-.629-2.553-3.683-2.553V1.082H28.552v.794c-3.05,0-3.676,1.341-3.676,2.553V25.415c0,1.211.625,2.55,3.676,2.55v.794H16.93v-.794c3.054,0,3.683-1.339,3.683-2.55V15.464H7.944v9.951c0,1.211.625,2.55,3.679,2.55v.794H0v-.794c3.052,0,3.679-1.339,3.679-2.55V4.428c0-1.212-.627-2.553-3.679-2.553V1.082H11.622v.794c-3.053,0-3.679,1.341-3.679,2.553V13.75Z" transform="translate(0 -0.239)" fill="#1a1818"></path><path id="Path_82374" data-name="Path 82374" d="M37.916,20.19h.961c1.3,3.888,4.223,7.4,8.655,7.4a4.739,4.739,0,0,0,4.724-6.19C50.541,15.549,39.13,15.3,39.13,7.314c0-4.14,3.3-6.984,7.4-6.984,4.431,0,6.436,3.095,7.442,0h.876l.92,8.908H54.723C53.76,5.349,51,2.046,47.113,2.046c-2.508,0-4.388,1.379-4.388,4.015,0,2.422,2.634,4.136,4.431,5.223,5.685,3.43,9.531,5.227,9.531,10.244,0,3.764-3.137,7.651-8.818,7.651-4.348,0-7.36-3.049-7.779,0h-.919Z" transform="translate(-8.382 -0.073)" fill="#1a1818"></path><path id="Path_82375" data-name="Path 82375" d="M76.435,13.459c4.221,0,6.689-1.8,6.689-5.184,0-3.18-2.006-4.894-4.932-5.435-3.848-.252-5.186-.334-5.186,1.128v9.491ZM73.005,25c0,1.465.378,2.217,3.43,2.217,4.347,0,7.567-1.3,7.567-6.187,0-4.976-4.977-5.9-8.906-5.9H73.005ZM68.741,4.428c0-1.212-.627-2.553-4.012-2.553V1.082h11.2c6.44,0,11.457,1.715,11.457,7.068,0,3.51-2.343,5.309-5.559,6.02v.085c3.593.667,6.979,2.881,6.979,6.9,0,5.017-4.346,7.606-10.91,7.606H64.729v-.794c3.385,0,4.012-1.339,4.012-2.55Z" transform="translate(-14.31 -0.239)" fill="#1a1818"></path><path id="Path_82376" data-name="Path 82376" d="M120.832,9.452h-1c-1.211-4.6-4.263-7.735-9.031-7.735-6.9,0-9.864,5.559-9.864,13.084,0,5.854,3.05,12.165,9.909,12.165a12.787,12.787,0,0,0,9.782-4.179l.711.837a14.667,14.667,0,0,1-10.871,5.227c-8.151,0-14.381-5.227-14.381-14.384C96.085,6.148,101.978,0,110.384,0c5.727,0,7.818,3.432,9.2.044h.875Z" transform="translate(-21.242 0)" fill="#1a1818"></path><rect id="Rectangle_7346" data-name="Rectangle 7346" width="28.119" height="28.119" transform="translate(122.172 0.09)" fill="#fff"></rect><path id="Path_82377" data-name="Path 82377" d="M156.846.087h28.119l-14.059,14.06Z" transform="translate(-34.674 -0.019)" fill="#e71a18"></path><path id="Path_82378" data-name="Path 82378" d="M156.846,32.2h28.119L170.907,18.137Z" transform="translate(-34.674 -4.009)" fill="#e71a18"></path><path id="Path_82379" data-name="Path 82379" d="M152.856.087V28.206L138.8,14.147Z" transform="translate(-30.684 -0.019)" fill="#e71a18"></path><path id="Path_82380" data-name="Path 82380" d="M192.946.087V28.206l14.06-14.059Z" transform="translate(-42.655 -0.019)" fill="#e71a18"></path></g></svg>