<svg xmlns="http://www.w3.org/2000/svg" xmlns:xlink="http://www.w3.org/1999/xlink" id="Group_76738" data-name="Group 76738" width="85.206" height="34.926" viewBox="0 0 85.206 34.926"><defs><clipPath id="clip-path"><rect id="Rectangle_7342" data-name="Rectangle 7342" width="85.206" height="34.926" fill="none"></rect></clipPath></defs><g id="Group_76737" data-name="Group 76737" transform="translate(0 0)" clip-path="url(#clip-path)"><path id="Path_82363" data-name="Path 82363" d="M89.025,16.593H85.68V3.41h3.149V4.885a3.167,3.167,0,0,1,2.655-1.771c2.165-.1,3.641,1.18,3.641,3.936v9.543H91.68V6.657c0-1.18,0-2.165-.787-2.362a1.428,1.428,0,0,0-1.18.3,2.632,2.632,0,0,0-.689,2.066Z" transform="translate(-9.919 -0.36)" fill="#64a8f0" fill-rule="evenodd"></path><path id="Path_82364" data-name="Path 82364" d="M24.082,4.3a4.43,4.43,0,0,0-2.952-1.18A4.636,4.636,0,0,0,18.18,4.3,7.6,7.6,0,0,0,15.917,10a7.451,7.451,0,0,0,2.263,5.707,4.64,4.64,0,0,0,2.951,1.18,4.434,4.434,0,0,0,2.952-1.18A7.12,7.12,0,0,0,26.345,10,7.257,7.257,0,0,0,24.082,4.3M22.8,10c0,2.46,0,4.427-.394,5.412a1.317,1.317,0,0,1-1.279.787,1.185,1.185,0,0,1-1.18-.787c-.493-.984-.493-2.952-.493-5.412,0-2.361,0-4.427.493-5.412A1.185,1.185,0,0,1,21.13,3.8a1.317,1.317,0,0,1,1.279.787c.493.984.394,3.051.394,5.412" transform="translate(-1.843 -0.361)" fill="#64a8f0" fill-rule="evenodd"></path><path id="Path_82365" data-name="Path 82365" d="M62.965,24.033v3.541h-.688c-.393-1.475-.984-2.754-2.558-2.853A1.708,1.708,0,0,0,57.751,26.1c-.1.885.2,1.672,1.968,2.656,2.263,1.279,4.034,1.869,4.034,4.526a4.309,4.309,0,0,1-4.526,4.231H55.291v-4.92h.69c.492,2.558,1.279,4.132,3.148,4.23a1.885,1.885,0,0,0,2.066-1.967c0-1.279-.787-2.066-2.656-3.149-2.066-1.279-3.345-2.066-3.345-3.837,0-2.361,1.673-3.837,4.329-3.837Z" transform="translate(-6.389 -2.782)" fill="#64a8f0" fill-rule="evenodd"></path><path id="Path_82366" data-name="Path 82366" d="M66.883,16.592V7.049c0-2.755-1.476-4.034-3.64-3.936a3.324,3.324,0,0,0-2.755,1.869,2.793,2.793,0,0,0-3.148-1.869,3.167,3.167,0,0,0-2.656,1.771V3.409h-3.05V16.592h3.345V6.656a2.325,2.325,0,0,1,.689-2.066,1.234,1.234,0,0,1,1.082-.3c.787.2.787,1.181.787,2.362v9.936h3.345V6.558a2.535,2.535,0,0,1,.689-1.968,1.234,1.234,0,0,1,1.082-.3c.787.2.885,1.181.885,2.362v9.936h3.345" transform="translate(-5.977 -0.359)" fill="#64a8f0" fill-rule="evenodd"></path><rect id="Rectangle_7341" data-name="Rectangle 7341" width="3.443" height="15.937" transform="translate(26.766 0.295)" fill="#64a8f0"></rect><path id="Path_82367" data-name="Path 82367" d="M46.659,16.271V.333H43.216V4.072a2.027,2.027,0,0,0-1.967-1.18c-2.46,0-4.428,2.558-4.526,6.493-.1,2.657.788,7.085,4.231,7.085a2.559,2.559,0,0,0,2.459-1.477v1.279Zm-4.034-12.1c.689.984.689,3.344.689,5.213,0,1.968.1,4.526-.689,5.608a1.233,1.233,0,0,1-1.082.591c-.688,0-1.082-.787-1.279-2.066-.1-1.18-.1-2.656-.1-4.231,0-2.655.2-5.608,1.476-5.608a1.211,1.211,0,0,1,.984.493" transform="translate(-4.25 -0.038)" fill="#64a8f0" fill-rule="evenodd"></path><path id="Path_82368" data-name="Path 82368" d="M79.408,3.8c.885.492,1.475,1.279,1.475,3.05v9.74H77.636V15.118a2.925,2.925,0,0,1-2.952,1.771c-1.18,0-3.246-.59-3.246-3.64,0-2.853,1.869-3.443,3.936-4.328,1.869-.787,2.066-.886,2.066-1.673V5.082c0-.885-.491-1.279-1.476-1.279-.393.1-1.082.3-1.082.786-.1.592.59.592.689,1.477A1.622,1.622,0,0,1,73.6,7.837a1.513,1.513,0,0,1-1.574-1.475c-.1-1.772,1.869-3.247,4.624-3.247a5.141,5.141,0,0,1,2.755.689M77.439,8.723l-1.082.689a2.977,2.977,0,0,0-1.378,2.558,11.871,11.871,0,0,0,0,2.656c.1,1.082.788,1.279,1.378,1.082.69-.3,1.082-1.574,1.082-2.952Z" transform="translate(-8.27 -0.361)" fill="#64a8f0" fill-rule="evenodd"></path><path id="Path_82369" data-name="Path 82369" d="M24.332,24.624c.885.59,1.377,1.279,1.377,3.049v9.84H22.56V36.037a3,3,0,0,1-2.952,1.672c-1.279,0-3.248-.493-3.248-3.542,0-2.853,1.87-3.443,3.838-4.328s2.164-.984,2.164-1.673V26c0-.983-.493-1.377-1.475-1.279-.394,0-1.083.2-1.083.689-.1.689.591.689.689,1.574.1,1.279-.983,1.771-1.967,1.771a1.684,1.684,0,0,1-1.575-1.575c-.1-1.672,1.87-3.148,4.625-3.148a5.215,5.215,0,0,1,2.755.591m-1.968,4.919-1.082.689A2.98,2.98,0,0,0,19.9,32.789a11.944,11.944,0,0,0,0,2.657c0,1.18.69,1.377,1.279,1.081.787-.294,1.18-1.475,1.18-2.951Z" transform="translate(-1.894 -2.782)" fill="#64a8f0" fill-rule="evenodd"></path><path id="Path_82370" data-name="Path 82370" d="M49.66,27.634c0-2.755-1.476-4.133-3.64-3.936a3.353,3.353,0,0,0-2.459,1.279V21.14H40.215v9.052c0,3.345-2.361,6.493-4.723,6.394-1.673,0-2.066-1.279-2.263-2.655a29.927,29.927,0,0,1-.1-6.691c.2-1.574.591-2.853,1.771-2.853.886,0,.984.591.591.983a2.018,2.018,0,0,0-.689,2.066c.294,1.181,2.164,1.378,3.051.493a2.526,2.526,0,0,0,.1-2.853A3.177,3.177,0,0,0,34.9,23.7c-1.869,0-5.411,1.672-5.411,6.985,0,5.706,3.64,6.69,5.706,6.69a5.879,5.879,0,0,0,5.018-3.739v3.542H43.56V27.239a2.631,2.631,0,0,1,.688-2.066,1.431,1.431,0,0,1,1.181-.3c.787.2.787,1.18.787,2.361v9.938H49.66Z" transform="translate(-3.414 -2.447)" fill="#64a8f0" fill-rule="evenodd"></path><path id="Path_82371" data-name="Path 82371" d="M11.812,0V5.608h-.69C10.532,2.853,9.253.787,7.482.689A2.54,2.54,0,0,0,5.023,2.264c-.59,1.18-.886,3.64-.886,6.591a34.6,34.6,0,0,0,.394,6.3A2.108,2.108,0,0,0,6.5,16.923a1.726,1.726,0,0,0,1.475-.591,4.474,4.474,0,0,0,.592-2.558V11.118a1.993,1.993,0,0,0-.789-1.869,7.666,7.666,0,0,0-1.278-.3V8.264h5.509V22.333h-.69a11.37,11.37,0,0,0-.982-2.755,3.26,3.26,0,0,0-2.853-1.868A2.391,2.391,0,0,0,4.728,20.07c0,1.968,1.18,2.46,3.344,3.64,2.067,1.181,4.723,2.165,4.723,5.609,0,3.345-2.853,5.412-6.1,5.412H1.481V27.942h.688c.886,5.115,3.051,6,4.527,6A2.56,2.56,0,0,0,9.45,31.09c-.1-2.165-1.573-2.952-3.64-4.034-2.95-1.673-4.328-2.46-4.328-5.214.1-2.362,1.968-3.838,4.034-4.427C1.187,16.923-.094,12.988,0,8.756,0,4.526,2.465,0,7.286,0Z" transform="translate(0 0)" fill="#64a8f0" fill-rule="evenodd"></path></g></svg>