<svg xmlns="http://www.w3.org/2000/svg" xmlns:xlink="http://www.w3.org/1999/xlink" id="Group_76740" data-name="Group 76740" width="91.327" height="34.926" viewBox="0 0 91.327 34.926"><defs><clipPath id="clip-path"><rect id="Rectangle_7344" data-name="Rectangle 7344" width="91.327" height="34.926" fill="none"></rect></clipPath></defs><g id="Group_76739" data-name="Group 76739" clip-path="url(#clip-path)"><path id="Path_82372" data-name="Path 82372" d="M30.628,23.133a4.563,4.563,0,0,1-.55,2.093l-.771-.659a1.4,1.4,0,0,0-.992,1.211l.771.662a4.241,4.241,0,0,1-2.754.993c-1.542,0-3.635-1.325-3.635-2.977a1.626,1.626,0,0,1,1.542-1.761,1.574,1.574,0,0,1,1.542,1.543,1.524,1.524,0,0,1-1.212,1.431l.881.771a2.56,2.56,0,0,0,1.542-2.093,2.04,2.04,0,0,0-.221-.771.841.841,0,0,0,.44.109,2.569,2.569,0,0,0,2.2-1.982l-.992-.771v.112a1.56,1.56,0,0,1-1.542,1.431,1.659,1.659,0,0,1-1.543-1.543,1.905,1.905,0,0,1,1.873-1.652C29.085,19.279,30.628,21.372,30.628,23.133Zm1.211,3.527L30.958,26a5.462,5.462,0,0,0,.881-2.866A5.056,5.056,0,0,0,26.8,18.065h-.025A5.636,5.636,0,0,0,23.026,19.5l-.221-.112.771-.99a.965.965,0,0,0-.992-.771l-.771.99-4.627-3.854,4.627-3.635.55.771-.771.661.55.771.881-.661.661.771L22.8,14.1l.661.771,2.2-1.762-2.314-1.323.661-.55,2.2,1.212-.771-2.423L26,9.584l.881,2.533,2.2-1.762-.552-.88-.881.771-.661-.771L27.87,8.7l-.661-.771-.771.661-.658-.774,1.873-1.431a1.622,1.622,0,0,0-.992-1.212l-9.914,8.043v-13A1.047,1.047,0,0,0,15.977,0a.928.928,0,0,0-.771.221V2.535h-.992V1.542h-1.1v.992H12.12V1.542h-.992V4.406l2.533-.992v.771l-2.314.992,2.314.992v.771l-2.533-.992V8.812h.992v-1.1h.992v1.1h1.1v-1.1h.992v5.4L5.291,5.177A1.434,1.434,0,0,0,4.3,6.389L6.171,7.82l-.661.771L4.74,7.931,4.079,8.7l.771.771-.552.772-.881-.771-.661.88,2.313,1.762L5.84,9.583l.661.441L5.73,12.447l2.2-1.212.661.55L6.17,13.108,8.484,14.87l.661-.771-.881-.661.661-.771.771.661.661-.771L9.474,11.9l.661-.771,4.627,3.635-4.737,3.854-.768-.989a1.059,1.059,0,0,0-.993.771l.771.99-.221.112a5.578,5.578,0,0,0-3.635-1.434A5.054,5.054,0,0,0,.11,23.106v.027A6.552,6.552,0,0,0,.881,26L0,26.661a1.622,1.622,0,0,0,.992,1.211l.881-.659a5.653,5.653,0,0,0,3.745,1.431,4.962,4.962,0,0,0,4.958-5.068A4.728,4.728,0,0,0,9.8,20.823l.221-.221.881.993a1.4,1.4,0,0,0,.881-.883l-.771-.88L15.2,16.419v5.4H13.99a.81.81,0,0,0-.221.662,1.382,1.382,0,0,0,.11.659H15.2v.221a5.3,5.3,0,0,0-4.627,5.068A5.156,5.156,0,0,0,15.2,33.6v1.1a1.609,1.609,0,0,0,.771.221,2.065,2.065,0,0,0,.771-.221V33.6a5.245,5.245,0,0,0,4.627-5.18,5.307,5.307,0,0,0-4.627-5.068v-.221h1.212a1.546,1.546,0,0,0,.221-.659,1.569,1.569,0,0,0-.221-.662H16.744v-5.4l4.185,3.414-.88.88a1.564,1.564,0,0,0,.992.883l.771-.993.221.221a5.71,5.71,0,0,0-.771,2.753A4.986,4.986,0,0,0,26.33,28.64a5.869,5.869,0,0,0,3.745-1.432l.771.659A1.281,1.281,0,0,0,31.839,26.661ZM20.052,28.422a4.025,4.025,0,0,1-3.306,3.966v-.993a1.056,1.056,0,0,0-.771-.218.936.936,0,0,0-.771.218v.993a4.122,4.122,0,0,1-3.415-3.966c0-1.323.661-2.644,2.2-2.644a1.4,1.4,0,0,1,1.322,1.543,1.457,1.457,0,0,1-1.433,1.432,1.2,1.2,0,0,1-.992-.439v1.322a1.808,1.808,0,0,0,1.1.221,2.013,2.013,0,0,0,1.983-.993,2.014,2.014,0,0,0,1.983.993,1.985,1.985,0,0,0,1.1-.221V28.314a1.346,1.346,0,0,1-.992.439,1.483,1.483,0,0,1-1.542-1.432,1.42,1.42,0,0,1,1.433-1.543C19.5,25.777,20.052,27.1,20.052,28.422Zm-10.8-3.966c0,1.652-2.093,2.977-3.635,2.977a4.233,4.233,0,0,1-2.754-.993l.771-.662a1.4,1.4,0,0,0-.992-1.211l-.771.659a4.547,4.547,0,0,1-.552-2.093c0-1.761,1.543-3.854,3.416-3.854a1.9,1.9,0,0,1,1.873,1.652,1.659,1.659,0,0,1-1.543,1.543,1.5,1.5,0,0,1-1.542-1.543l-.992.771a2.454,2.454,0,0,0,2.2,1.982.406.406,0,0,0,.33-.109c0,.221-.11.55-.11.771a2.446,2.446,0,0,0,1.433,2.093l.992-.771a1.524,1.524,0,0,1-1.212-1.431,1.575,1.575,0,0,1,1.542-1.543A1.628,1.628,0,0,1,9.256,24.456ZM70.838,10.8c0,3.3-1.873,4.847-4.076,4.847H64.228V6.17h2.754c2.423,0,3.856,1.982,3.856,4.627M91.327,21.7c0-4.738-3.3-6.059-6.168-7.16-2.533-.771-4.958-1.653-4.958-4.406,0-3.085,2.093-4.3,4.516-4.3,2.864,0,4.406,1.762,4.737,5.508h.992l-.11-5.068a11.107,11.107,0,0,0-5.177-1.433C81.082,4.846,78,7.05,78,11.457c0,3.525,2.644,5.287,5.288,6.279,2.864.993,5.728,1.652,5.728,5.068,0,3.2-1.652,4.847-4.516,4.847-3.525,0-5.4-2.2-5.618-6.277h-1.1L78,27.321a15.412,15.412,0,0,0,6.279,1.432A6.65,6.65,0,0,0,91.327,21.7Zm-16.3.33c0-4.847-3.306-5.839-6.72-5.949v-.11c2.644-.441,5.618-1.431,5.618-5.4,0-3.525-1.983-5.4-6.059-5.4H58.5v.992h2.644V27.431H58.5v.88h9.034c3.745,0,7.491-1.321,7.491-6.28M57.177,6.168V5.177H51.009v.992h2.533V20.379c0,4.075-1.1,6.941-5.178,6.941-4.187,0-5.289-2.532-5.289-6.941V6.168h2.754V5.177H37.347v.992H39.88V20.6c0,4.4,1.433,8.041,7.491,8.041,6.17,0,7.491-3.745,7.491-8.041V6.168ZM71.719,22.031c0,3.307-1.762,5.4-5.289,5.4h-2.2V16.525h2.644C69.625,16.525,71.719,18.4,71.719,22.031Z" fill="#0c0e0f" fill-rule="evenodd"></path></g></svg>