<svg xmlns="http://www.w3.org/2000/svg" xmlns:xlink="http://www.w3.org/1999/xlink" id="Group_76746" data-name="Group 76746" width="150.287" height="26.195" viewBox="0 0 150.287 26.195"><defs><clipPath id="clip-path"><rect id="Rectangle_7351" data-name="Rectangle 7351" width="150.287" height="26.195" fill="none"></rect></clipPath></defs><g id="Group_76745" data-name="Group 76745" transform="translate(0 0)" clip-path="url(#clip-path)"><path id="Path_82395" data-name="Path 82395" d="M0,.956V25.239H4.207V8.987L17.113,25.239h3.441V.956h-3.92V14.341L5.927.956Zm58.509,15.87-3.059,8.413h3.92l1.243-3.155ZM69.885.956H64.818L63.193,5.163l2.295,5.832.765-2.1,6.023,16.348h6.883ZM69.6,25.239,60.325.956H55.449L46.367,25.239h4.4L56.883,8.891,63,25.239ZM35.373,0C27.342,0,23.327,6.119,23.327,13.1c0,7.074,4.015,13.1,12.046,13.1s11.95-6.023,11.95-13.1C47.323,6.119,43.4,0,35.373,0m0,22.849c-3.059,0-5.928-2.963-5.928-9.751s2.868-9.751,5.928-9.751c2.963,0,5.927,2.963,5.927,9.751s-2.964,9.751-5.927,9.751M110.229,4.4h2.677c2.964,0,4.3,1.817,4.3,4.4,0,3.059-1.72,4.207-5.927,4.493l6.405,11.95h6.6l-5.832-10.708c3.155-1.051,4.971-2.868,4.971-6.6,0-3.92-3.155-6.979-7.553-6.979H104.015V25.239h6.214ZM95.411,16.922c0,3.632-1.243,5.45-4.684,5.45-3.538,0-4.685-1.817-4.685-5.45V.956h-6.31V16.922c0,6.5,3.92,9.273,10.134,9.273S99.9,23.423,99.9,16.922V.956H95.411ZM134.7.956l-9.751,24.283h4.207l2.677-6.693h8.891l2.677,6.693h6.884L140.344.956Zm-1.529,14.149,3.059-7.648,3.059,7.648Z" transform="translate(0 0)" fill="#1a1818" fill-rule="evenodd"></path></g></svg>