<svg xmlns="http://www.w3.org/2000/svg" xmlns:xlink="http://www.w3.org/1999/xlink" id="Group_76668" data-name="Group 76668" width="174.009" height="34.926" viewBox="0 0 174.009 34.926"><defs><clipPath id="clip-path"><rect id="Rectangle_7259" data-name="Rectangle 7259" width="174.009" height="34.926" transform="translate(0 0)" fill="none"></rect></clipPath></defs><g id="Group_76667" data-name="Group 76667" transform="translate(0 0)" clip-path="url(#clip-path)"><path id="Path_82082" data-name="Path 82082" d="M17.54,0H7.321V.869h3.251v16.9c0,5.04-1.411,6.515-4.574,6.515A2.118,2.118,0,0,1,3.667,22.4a1.532,1.532,0,0,1,0-.416c0-1.84-.1-2.974-1.789-2.974S0,20.728,0,21.245c0,2.331,1.033,4.108,5.683,4.108,5.544,0,8.543-1.865,8.543-8.039V.857h3.415Z" transform="translate(0.15 -0.356)" fill="#503629"></path><path id="Path_82083" data-name="Path 82083" d="M15.414,17a1.9,1.9,0,0,0-1.424.567,1.94,1.94,0,0,0-.58,1.424,1.879,1.879,0,0,0,.58,1.386,2.012,2.012,0,0,0,1.424.58,2.063,2.063,0,0,0,1.449-.58,1.879,1.879,0,0,0,.58-1.386A1.966,1.966,0,0,0,15.5,17Z" transform="translate(3.638 4.065)" fill="#503629"></path><path id="Path_82084" data-name="Path 82084" d="M33.414,17a1.953,1.953,0,0,0-2,1.9v.089a1.837,1.837,0,0,0,.63,1.386,2.038,2.038,0,0,0,1.424.58,1.966,1.966,0,0,0,1.436-.58,1.84,1.84,0,0,0,.6-1.386,1.893,1.893,0,0,0-.592-1.424,1.937,1.937,0,0,0-1.4-.567" transform="translate(8.32 4.065)" fill="#503629"></path><path id="Path_82085" data-name="Path 82085" d="M29.572,0H19.491V.869h2.936V20.161a5.625,5.625,0,0,1-.265,2.331,2.017,2.017,0,0,1-1.26,1.134,6.036,6.036,0,0,1-1.9.315v.806H29.711v-.806a7.08,7.08,0,0,1-2.054-.29,2.054,2.054,0,0,1-1.26-1.134,3.53,3.53,0,0,1-.265-1.575v-6.6H28.8c7.737,0,9.917-3.049,9.917-7.2S37.41,0,29.572,0M28.186,13.357H26.157V.983H28C33.97.958,35.381,3.39,35.381,7.371s-2.344,6.074-7.094,6.074" transform="translate(5.092 -0.356)" fill="#503629"></path><path id="Path_82086" data-name="Path 82086" d="M65.579,22.416a5.138,5.138,0,0,1-.214-1.689V.856h2.659V.05H61.635L54.024,18.888a.175.175,0,0,1-.151.113.2.2,0,0,1-.189-.113S45.682.277,45.594.05H38.55V.831h3.087V21.723a2.618,2.618,0,0,1-.416,1.26,2.357,2.357,0,0,1-1.134.806,5.524,5.524,0,0,1-1.474.139v.806h6.981v-.806a3.96,3.96,0,0,1-1.26-.189,2.244,2.244,0,0,1-1.26-.794,2.638,2.638,0,0,1-.428-1.26l-.076-1.739V3.452h.416s9.11,21.031,9.11,21.27h.882L61.572,3.629H61.8v17a6.185,6.185,0,0,1-.214,1.739,2.045,2.045,0,0,1-1.071,1.147,5.3,5.3,0,0,1-1.777.3v.806H68.5v-.806a5.245,5.245,0,0,1-1.815-.328,1.953,1.953,0,0,1-1.084-1.26" transform="translate(10.176 -0.343)" fill="#503629"></path><path id="Path_82087" data-name="Path 82087" d="M72.213,5.25C67,5.25,63.67,8.69,63.67,14.7c0,8.821,6.893,9.388,8.367,9.388,2.949,0,8.543-1.827,8.543-9.551,0-6.074-3.579-9.287-8.4-9.287m0,17.742c-3.931,0-4.536-1.941-4.536-8.2,0-4.851.3-8.493,4.536-8.493,4.549,0,4.574,3.78,4.574,8.153,0,6.3-1.084,8.493-4.574,8.493" transform="translate(16.71 1.009)" fill="#503629"></path><path id="Path_82088" data-name="Path 82088" d="M90.4,5.46c-3.125,0-4.083,1.84-4.965,3.7h-.239s-.454-2.709-.617-3.516H78.49v.92h3.276V18.829a6.081,6.081,0,0,1-.4,2.52c-.328.617-1.084.92-2.319.92H78.5v1.084H88.583V22.269H88.1c-1.336,0-1.9-.29-2.256-.869a5.158,5.158,0,0,1-.416-2.571V12.441c0-2.13,1.613-4.574,3.553-4.574s1.978,3.112,4.284,1.865c1.26-.68,1.033-4.246-2.848-4.246" transform="translate(20.564 1.064)" fill="#503629"></path><path id="Path_82089" data-name="Path 82089" d="M123.2,21.566c-1.084,0-1.436-.6-1.5-1.6V10.3a4.614,4.614,0,0,0-1.26-3.642c-.945-.932-2.734-1.424-5.343-1.424A9.269,9.269,0,0,0,109.537,6.6a3.315,3.315,0,0,0-1.6,2.848,1.462,1.462,0,0,0,.441,1.26,1.636,1.636,0,0,0,1.109.391c1.008,0,1.563-.517,1.789-1.827a3.436,3.436,0,0,1,.794-2.079,3.176,3.176,0,0,1,2.432-.806A3.1,3.1,0,0,1,117.174,7.4a4.284,4.284,0,0,1,.706,2.583v2.961c-3.238.29-10.887.895-10.547,6.7a4.661,4.661,0,0,0,4.776,4.2,7.95,7.95,0,0,0,5.922-2.923,3.363,3.363,0,0,0,3.44,2.709c2.356,0,3.78-1.159,3.931-4.02h-.617c-.151,1.26-.92,1.915-1.562,1.915m-5.3-1.865a.114.114,0,0,1,0,.126v.076a6.553,6.553,0,0,1-4.032,2.13,2.773,2.773,0,0,1-2.873-2.668v0a2.291,2.291,0,0,1,0-.416c0-3.289,4.536-4.94,7.006-4.94Z" transform="translate(28.063 0.999)" fill="#503629"></path><path id="Path_82090" data-name="Path 82090" d="M140.076,21.386a4.7,4.7,0,0,1-.63-2.634v-8a6.2,6.2,0,0,0-.592-2.974A4.464,4.464,0,0,0,137.077,6a5.747,5.747,0,0,0-2.671-.58,6.3,6.3,0,0,0-5.759,3.415h-.391l-.63-3.2H122.17v.92h2.76v12.2a8.145,8.145,0,0,1-.2,2.067,1.611,1.611,0,0,1-1.033,1.134,4.2,4.2,0,0,1-1.525.252v1.121h8.745V22.192a2.244,2.244,0,0,1-1.789-.743,4.678,4.678,0,0,1-.491-2.52v-4.65a11.154,11.154,0,0,1,.668-5.04,3.932,3.932,0,0,1,3.516-1.966,2.52,2.52,0,0,1,2.445,1.26,12.459,12.459,0,0,1,.592,4.133v5.771a11.7,11.7,0,0,1,0,2.142,1.7,1.7,0,0,1-.769,1.26,2.86,2.86,0,0,1-1.4.365v1.134h8.43V22.217c-1.058-.076-1.752-.328-2.067-.819" transform="translate(31.924 1.053)" fill="#503629"></path><path id="Path_82091" data-name="Path 82091" d="M108.465,4.689a1.714,1.714,0,0,0-1.046,1.386c-.139.718-.416,1.147-.781,1.26a2.026,2.026,0,0,1-1.26-.076,8.127,8.127,0,0,0-5.733-1.915,6.6,6.6,0,0,0-7.094,6.048v.794c0,3.78,1.449,5.532,4.612,6.2.2,0,.2.252,0,.277-2.659.491-5.04,1.26-5.04,3.843a2.9,2.9,0,0,0,1.941,2.747,15.134,15.134,0,0,0,5.242.819,38.48,38.48,0,0,1,4.209.189,5.045,5.045,0,0,1,2.293.794,2.408,2.408,0,0,1,.869,2.041,3.161,3.161,0,0,1-1.9,2.835,9.834,9.834,0,0,1-4.788,1,7.893,7.893,0,0,1-4.4-.97,2.331,2.331,0,0,1-.92-2.52,1.45,1.45,0,0,0-.895-1.827h-.189a1.587,1.587,0,0,0-1.512.68,2.829,2.829,0,0,0-.391,1.626A3.64,3.64,0,0,0,94.6,33.343a15.244,15.244,0,0,0,4.877.718,12.363,12.363,0,0,0,5.557-1.033,5.758,5.758,0,0,0,3.528-5.255,5.234,5.234,0,0,0-.832-3.075c-1.764-2.419-4.259-2.092-9.879-2.369-2.7,0-3.226-.479-3.226-1.26,0-1.26,1-1.7,4.877-2.293s7.447-2,7.447-6.678a7.771,7.771,0,0,0-.706-3.314,4.141,4.141,0,0,0,2.218,0,2.519,2.519,0,0,0,1.575-1.26,1.928,1.928,0,0,0,.3-1.651c-.328-1.046-.958-1.424-1.915-1.134M99.733,17.63c-2.293,0-3.667-.832-3.667-5.494,0-3.289,1.147-5.733,3.667-5.733,2.873,0,3.654,2.23,3.654,5.658,0,4.864-1.55,5.57-3.654,5.57" transform="translate(23.993 0.852)" fill="#503629"></path></g></svg>