<svg xmlns="http://www.w3.org/2000/svg" xmlns:xlink="http://www.w3.org/1999/xlink" width="139" height="35" viewBox="0 0 139 35"><defs><clipPath id="clip-path"><rect id="Rectangle_7262" data-name="Rectangle 7262" width="139" height="35" transform="translate(0 -0.045)" fill="none"></rect></clipPath></defs><g id="Group_76672" data-name="Group 76672" transform="translate(0 0.045)"><g id="Group_76671" data-name="Group 76671" transform="translate(0 0)" clip-path="url(#clip-path)"><path id="Path_82102" data-name="Path 82102" d="M70.084,9.123A21.43,21.43,0,0,0,35,9.123l-.207.293h5.079l.056-.061a17.315,17.315,0,0,1,25.229,0l.058.061h5.076Z" transform="translate(-16.303 0)" fill="#d8001e" fill-rule="evenodd"></path><path id="Path_82103" data-name="Path 82103" d="M16.473,32.306l-.1.095a7.343,7.343,0,0,1-5.224,2.432A6.6,6.6,0,0,1,4.45,27.9a6.6,6.6,0,0,1,6.7-6.928,7.338,7.338,0,0,1,5.224,2.438l.1.1,2.5-3.02L18.9,20.4a9.526,9.526,0,0,0-7.631-3.646,11.569,11.569,0,0,0-7.906,2.9A10.818,10.818,0,0,0,0,27.9a10.841,10.841,0,0,0,3.365,8.25,11.537,11.537,0,0,0,7.906,2.9A9.523,9.523,0,0,0,18.9,35.4l.067-.075Zm5.02,6.334H25.9V17.107H21.493Zm21.689-4.683a6.38,6.38,0,0,1-3.256,1.078c-1.427,0-2.069-.751-2.069-2.426V21.183H42.35V17.127H37.858v-6.7l-4.325,2.311v4.388H29.806v4.056h3.727V33.337c0,3.311,1.963,5.572,4.891,5.633a6.961,6.961,0,0,0,3.915-.987l.041-.029L43.442,33.8Zm3.654,4.683h4.412V17.107H46.836ZM121.6,8.913V29.454l1.374-2.137c0,.01,6.174-8.934,6.964-10.071h2.753c-.587.786-5.442,7.466-5.442,7.466s6.324,13.18,6.69,13.929h-2.7c-.148-.306-5.581-11.809-5.581-11.809L121.6,32.515V38.64h-2.518V10.352c.221-.127,1.924-1.1,2.518-1.439M100.922,19.795a6.667,6.667,0,0,1,5.712-3.011c4.747,0,7.262,3.028,7.262,8.756v13.1h-2.523V26.081c0-4.872-1.692-7.136-5.359-7.136-3.509,0-5.6,2.669-5.6,7.136V38.64H97.893V17.246h2.518v3.317ZM85.448,16.783c4.883,0,7.257,2.233,7.257,6.83V38.64H90.189V35.519l-.492.541a8.448,8.448,0,0,1-6.51,3.044c-1.985,0-6.6-.657-6.6-6.749,0-4.978,4.11-6.747,7.961-6.747a11.034,11.034,0,0,1,5.23,1.223l.416.23V23.989c0-3.406-1.664-5.131-4.95-5.131a11.289,11.289,0,0,0-5.733,1.57c-.164-.382-.748-1.667-.91-2.033a14.9,14.9,0,0,1,6.852-1.611m-6.4,15.364c0,3.2,1.658,4.96,4.671,4.96a7.777,7.777,0,0,0,6.419-3.413l.048-.077V28.929l-.142-.082a10.633,10.633,0,0,0-5.67-1.286c-3.329,0-5.325,1.715-5.325,4.586M59.614,8.913V20.36l.485-.534a8.217,8.217,0,0,1,6.269-3.043c4.721,0,7.429,3.934,7.429,10.8,0,7-3.077,11.519-7.843,11.519A7.338,7.338,0,0,1,60.1,36.272l-.488-.572v2.94H57.1V10.352c.212-.127,1.921-1.1,2.513-1.439m.058,13.311-.058.078V33.443l.045.067a7.257,7.257,0,0,0,6.059,3.436c3.719,0,5.6-3.137,5.6-9.315,0-5.523-2.088-8.686-5.729-8.686-2.206,0-4.2,1.1-5.92,3.279M137.434,14.3c0,.249-.17.357-.4.357h-.667v-.715h.667a.354.354,0,0,1,.4.358m.435-.013a.737.737,0,0,0-.824-.761h-1.108v2.522h.428v-.973h.486l.494.973h.508l-.52-1.018a.717.717,0,0,0,.536-.743m1.257.544a2.31,2.31,0,1,0-2.309,2.309,2.266,2.266,0,0,0,2.309-2.309m-.371,0a1.939,1.939,0,1,1-1.937-1.939,1.9,1.9,0,0,1,1.937,1.939" transform="translate(0 -4.177)" fill="#003e92"></path></g></g></svg>