<svg xmlns="http://www.w3.org/2000/svg" xmlns:xlink="http://www.w3.org/1999/xlink" id="Group_76676" data-name="Group 76676" width="170.414" height="32.016" viewBox="0 0 170.414 32.016"><defs><clipPath id="clip-path"><rect id="Rectangle_7266" data-name="Rectangle 7266" width="170.414" height="32.016" fill="none"></rect></clipPath></defs><g id="Group_76675" data-name="Group 76675" clip-path="url(#clip-path)"><path id="Path_82106" data-name="Path 82106" d="M41.316,23.183,47.6,3.8C48.493.836,50,0,52.306,0H63.985c-.917.372-1.522,2.724-1.522,2.724L56.821,22.193a4.939,4.939,0,0,1-4.986,3.734H39.456c.887-.16,1.86-2.745,1.86-2.745m-18.647,0L16.38,3.8c-.889-2.96-2.4-3.8-4.7-3.8H0C.917.372,1.524,2.724,1.524,2.724L7.162,22.193a4.942,4.942,0,0,0,4.99,3.734H24.53c-.888-.16-1.861-2.745-1.861-2.745" transform="translate(0 0)" fill="#e5002b"></path><rect id="Rectangle_7265" data-name="Rectangle 7265" width="13.744" height="25.772" transform="translate(25.149 0.153)" fill="#e5002b"></rect><path id="Path_82107" data-name="Path 82107" d="M269.532,34.87a28.283,28.283,0,0,1-6.2.751q-5.08,0-7.651-2.539a8.445,8.445,0,0,1-2.571-6.242,8.043,8.043,0,0,1,2.722-6.3q2.7-2.432,7.953-2.433a27.168,27.168,0,0,1,5.581.674v3.279a20.452,20.452,0,0,0-5.186-.907,4.6,4.6,0,0,0-4.023,1.767,6.444,6.444,0,0,0-1.286,3.889,6.61,6.61,0,0,0,.74,3.052,4.541,4.541,0,0,0,2.057,2.064,6.576,6.576,0,0,0,2.95.648,15.747,15.747,0,0,0,4.915-.83Zm-26.45-2.717a5.168,5.168,0,0,1-1.922.385,2.873,2.873,0,0,1-1.83-.611,1.9,1.9,0,0,1-.785-1.578,2.269,2.269,0,0,1,1.284-1.939,7.889,7.889,0,0,1,3.933-.771h1.269v3.375a8.638,8.638,0,0,1-1.949,1.139m2.193,1.294a3.1,3.1,0,0,0,1.679,1.752,7.067,7.067,0,0,0,2.571.421,12.553,12.553,0,0,0,3.054-.436l-.075-2.54a6.891,6.891,0,0,1-.741.052,1.977,1.977,0,0,1-1.013-.3c-.347-.2-.514-.754-.514-1.67v-7.4a4.307,4.307,0,0,0-1.044-3.148,6.457,6.457,0,0,0-2.812-1.561,14.338,14.338,0,0,0-3.979-.508,23.964,23.964,0,0,0-7.3,1.166v3.13a14.977,14.977,0,0,1,6.319-1.49,5.6,5.6,0,0,1,2.587.53,2.115,2.115,0,0,1,1.028,2.073v1.507h-1.45c-3.6,0-6.215.551-7.819,1.653a4.853,4.853,0,0,0-2.419,4.121,4.371,4.371,0,0,0,1.618,3.42,6.32,6.32,0,0,0,4.294,1.4,9.173,9.173,0,0,0,1.966-.2,8.6,8.6,0,0,0,1.8-.62,12.051,12.051,0,0,0,2.026-1.349ZM218.13,24.253a8.453,8.453,0,0,1,2.161-1.863,4.633,4.633,0,0,1,2.33-.68,3.332,3.332,0,0,1,2.858,1.361,6.2,6.2,0,0,1,1,3.727,7.929,7.929,0,0,1-1.044,4.077,3.466,3.466,0,0,1-3.205,1.782,5.4,5.4,0,0,1-2-.383,7.046,7.046,0,0,1-2.1-1.444V24.253m0,17.06V33.5a9.533,9.533,0,0,0,1.934,1.319,7.789,7.789,0,0,0,1.739.6,9.081,9.081,0,0,0,1.967.2,7.744,7.744,0,0,0,6.245-2.639,9.853,9.853,0,0,0,2.238-6.576,8.807,8.807,0,0,0-2.011-6.006,7.077,7.077,0,0,0-5.641-2.288,7.8,7.8,0,0,0-3.825.9,7.006,7.006,0,0,0-2.646,2.7V18.469h-5.4V41.313Zm-7.985-6.153a13.621,13.621,0,0,1-3.041.472,10.569,10.569,0,0,1-4.1-.632,4.954,4.954,0,0,1-2.193-1.707,5.64,5.64,0,0,1-.726-3.152V21.326h-2.223V18.479h2.223V15.634l5.4-.525v3.37h4.294v2.846h-4.294v8.2a3.044,3.044,0,0,0,.77,2.433,3.432,3.432,0,0,0,2.238.632,8.214,8.214,0,0,0,1.649-.2V35.16m-28.916-.446v-3.32a21.693,21.693,0,0,0,6.852,1.384,4.728,4.728,0,0,0,2.418-.534,1.533,1.533,0,0,0,.892-1.344,1.426,1.426,0,0,0-.664-1.211,8.157,8.157,0,0,0-2.072-.92l-1.816-.614a12.722,12.722,0,0,1-4.189-2.095,3.661,3.661,0,0,1-1.346-2.944,4.228,4.228,0,0,1,2.041-3.584c1.362-.946,3.434-1.419,6.232-1.419a34.491,34.491,0,0,1,5.837.595v3.122A21.864,21.864,0,0,0,190,20.959a5.257,5.257,0,0,0-2.525.477,1.419,1.419,0,0,0-.847,1.236,1.378,1.378,0,0,0,.545,1.065,5.881,5.881,0,0,0,1.936.883l1.573.505c2.6.829,4.294,1.63,5.1,2.4a3.812,3.812,0,0,1,1.179,2.8,4.567,4.567,0,0,1-2.178,3.707,10.624,10.624,0,0,1-6.337,1.594,30.025,30.025,0,0,1-7.214-.907M167.939,22.038a3.349,3.349,0,0,1,2.568-1.079,3.056,3.056,0,0,1,2.344.981,4.719,4.719,0,0,1,.906,3.248h-7.074a5.454,5.454,0,0,1,1.256-3.15m11.142,9.512a21.92,21.92,0,0,1-6.078.988,8.185,8.185,0,0,1-3.344-.568,5.046,5.046,0,0,1-1.985-1.543,5.337,5.337,0,0,1-.913-2.671h12.4q-.068-5.559-2.36-7.6a8.837,8.837,0,0,0-6.109-2.042,10.949,10.949,0,0,0-5.251,1.15,7.915,7.915,0,0,0-3.245,3.143,8.727,8.727,0,0,0-1.113,4.326,8.826,8.826,0,0,0,1.313,4.7,7.79,7.79,0,0,0,3.754,3.172,14.58,14.58,0,0,0,5.678,1.021,30.007,30.007,0,0,0,7.258-.949Z" transform="translate(-99.118 -9.297)" fill="#30444f"></path></g></svg>