<svg xmlns="http://www.w3.org/2000/svg" xmlns:xlink="http://www.w3.org/1999/xlink" id="Group_76744" data-name="Group 76744" width="153.266" height="58.211" viewBox="0 0 153.266 58.211"><defs><clipPath id="clip-path"><rect id="Rectangle_7349" data-name="Rectangle 7349" width="153.266" height="58.211" fill="none"></rect></clipPath></defs><g id="Group_76743" data-name="Group 76743" transform="translate(0 0)" clip-path="url(#clip-path)"><path id="Path_82381" data-name="Path 82381" d="M58.672,11.623c-4.739,2.774-6.194,2.991-11.3,6.071a54.177,54.177,0,0,0,5.872-7.33A114.113,114.113,0,0,0,36.7,12.272,65.993,65.993,0,0,1,53.937,6.848C52.9,5.422,44.51.859,42.415,0,49.056.514,57.182,2.979,61.11,5.4a31.2,31.2,0,0,1,6.045-.767c-.73,1.262-.741,2-3.579,3.86.786,2.094-1.084,13.625-2.622,16.692-.067-4.829-.5-10.928-2.282-13.566" transform="translate(-6.635 0)" fill="#009383" fill-rule="evenodd"></path><path id="Path_82382" data-name="Path 82382" d="M17.461,60.886A18.62,18.62,0,0,1,10.63,56.7a20.714,20.714,0,0,1,2.585-4.935c-2.223.317-3.829.559-5.732.932A29.488,29.488,0,0,1,4.445,43.75,31.8,31.8,0,0,0,4.412,53.4,28.169,28.169,0,0,0,0,54.946a49.564,49.564,0,0,0,5.889,3.236A19.671,19.671,0,0,0,10.351,64.5a11.973,11.973,0,0,1-.419-4.813,28.222,28.222,0,0,0,7.529,1.2" transform="translate(0 -7.909)" fill="#009383" fill-rule="evenodd"></path><path id="Path_82383" data-name="Path 82383" d="M25.658,17.852h0a15.148,15.148,0,0,0-2.092,4.1,35.307,35.307,0,0,1,12.611,4.544,41.3,41.3,0,0,0-11.63-.749,8.686,8.686,0,0,0-2.736.5c-1.647,3.579-2.628,9.8-2.628,9.809C18.066,33.373,16.452,28,16.452,28c-3.084,1.658-10.171,8.328-10.177,8.331,3.9-7.816,7.849-11.4,7.853-11.4-1.362-1.36-4.928-2.042-7.534-2.16A28.729,28.729,0,0,1,14.1,21.448a35.982,35.982,0,0,1,4.283.079,21.756,21.756,0,0,1,7.274-3.674" transform="translate(-1.134 -3.227)" fill="#009383" fill-rule="evenodd"></path><path id="Path_82384" data-name="Path 82384" d="M36.732,58.683c-1.243,1.663-2.291,2.989-3.667,4.522a23.768,23.768,0,0,1-6.517.891,15.534,15.534,0,0,0,4.229,1.464,28.21,28.21,0,0,1-4.131,3.193,31.324,31.324,0,0,0,7.883-2.96,16.532,16.532,0,0,0,3.195-.193c-.2-.727-.354-1.249-.532-2.182a52.38,52.38,0,0,0,5.631-5.1,38.209,38.209,0,0,1-5.867,3.446c-.106-1.044-.172-1.919-.224-3.084" transform="translate(-4.799 -10.543)" fill="#009383" fill-rule="evenodd"></path><path id="Path_82385" data-name="Path 82385" d="M35.2,40.228c.094,1.022.159,3.568.159,4.5,0,.855-.012,3.727-.174,4.967l-.019.1,5.615,0c2.744,0,5.67-.7,5.67-2.652,0-1.225-1.107-2.132-3.186-2.632,1.525-.323,2.564-1.169,2.564-2.145,0-1.592-2.3-2.2-4.443-2.236l-6.193-.007Zm4.338.983c2.344.008,3.214.4,3.214,1.416a.968.968,0,0,1-.311.717,3.512,3.512,0,0,1-2.453.605h-.055l-.646,1.359h.655a4.247,4.247,0,0,1,2.988.855,1.2,1.2,0,0,1,.4.873c0,1.078-1.176,1.627-3.484,1.627-.389,0-1.016,0-1.418-.022-.084-1.414-.089-3.342-.089-3.912,0-.673.038-2.173.093-3.457a8.118,8.118,0,0,1,1.106-.062" transform="translate(-6.357 -7.254)" fill="#1a1818" fill-rule="evenodd"></path><path id="Path_82386" data-name="Path 82386" d="M62.393,40.128H59.672l.116,2.435c.048,1.214.1,2.449.2,3.647a7.6,7.6,0,0,0-1.153-1.529c-.026-.034-2.854-3.533-3.839-4.522l-.029-.03H51.791l0,.1c.094,1.018.16,3.565.16,4.506,0,.853-.011,3.727-.177,4.966l-.012.1h2.818l-.006-.092c-.165-2.372-.165-4.748-.165-7.045v-.006a3.188,3.188,0,0,0,.673,1.054c.049.059,4.891,5.717,5.14,6.056l.023.034h2.268l-.011-.1c-.17-1.242-.181-4.113-.181-4.966,0-.94.069-3.493.159-4.506l.012-.1Z" transform="translate(-9.358 -7.254)" fill="#1a1818" fill-rule="evenodd"></path><path id="Path_82387" data-name="Path 82387" d="M68.737,40.223c.09,1.026.159,3.569.159,4.507,0,.853-.012,3.724-.181,4.963l-.01.1h3.36l-.01-.1c-.121-.885-.161-2.582-.174-3.891l.618.026.47.018c4.432,0,6.584-.954,6.584-2.914,0-2.237-3.017-2.756-5.546-2.8H68.729ZM72.854,41.3a4.66,4.66,0,0,1,3.215.761,1.193,1.193,0,0,1,.357.876c0,1.4-1.956,1.693-3.6,1.693l-.663-.016S72,44.594,71.9,44.58c-.012-.32-.016-.742-.016-1.223,0-.618.008-1.323.041-2,.206-.025.569-.05.931-.06" transform="translate(-12.42 -7.254)" fill="#1a1818" fill-rule="evenodd"></path><path id="Path_82388" data-name="Path 82388" d="M89.776,40.223c.1,1.026.162,3.569.162,4.507,0,.853-.011,3.724-.176,4.963l-.013.1H93.11l-.016-.1c-.114-.885-.158-2.582-.171-3.891l.612.026.475.018c4.43,0,6.584-.954,6.584-2.914,0-2.237-3.016-2.756-5.549-2.8H89.771ZM93.9,41.3c1.573-.025,2.682.235,3.212.761a1.189,1.189,0,0,1,.364.876c0,1.4-1.96,1.693-3.6,1.693l-.662-.016s-.165-.016-.266-.029c-.011-.32-.016-.748-.016-1.225,0-.62.011-1.321.041-2,.2-.025.571-.05.932-.06" transform="translate(-16.224 -7.254)" fill="#1a1818" fill-rule="evenodd"></path><path id="Path_82389" data-name="Path 82389" d="M107.289,40.137h-.055l-.025.053c-.626,1.371-4.649,8.4-5.276,9.476l-.077.136h2.884l.02-.059c.252-.656.573-1.406.953-2.214L108.1,47.5l1.961.02s.347.007.429.007c.521,1.043.9,1.829,1.073,2.218l.022.057h3.339l-5.38-9.665Zm.818,2.846c.267.456.957,1.749,1.737,3.274l-.258.007-1.479.017s-1.529-.022-1.768-.027c.623-1.226,1.235-2.333,1.768-3.271" transform="translate(-18.413 -7.256)" fill="#1a1818" fill-rule="evenodd"></path><path id="Path_82390" data-name="Path 82390" d="M119.425,40.225c.089,1.019.163,3.568.163,4.507,0,.853-.019,3.724-.184,4.963l-.011.1h3.36l-.01-.1c-.172-1.246-.181-4.113-.181-4.965,0-.673.038-2.173.093-3.377.283-.024.656-.049.913-.055a4.626,4.626,0,0,1,3.206.759,1.175,1.175,0,0,1,.369.873c0,1.117-1.314,1.679-2.531,1.732a4.522,4.522,0,0,1-.718-.027l-.23-.034.151.176c1.174,1.393,2.967,3.822,3.718,4.982l.031.04h3.6l-.107-.147c-.123-.155-2.485-2.922-3.486-4.1,0,0-.038-.043-.061-.075,1.828-.443,2.729-1.273,2.729-2.543,0-2.234-3.021-2.756-5.55-2.8l-5.276-.007Z" transform="translate(-21.583 -7.254)" fill="#1a1818" fill-rule="evenodd"></path><path id="Path_82391" data-name="Path 82391" d="M138.881,40.125h-3.224l.011.1c.093,1.022.158,3.57.158,4.507,0,.849-.011,3.722-.176,4.963l-.012.1H139l-.016-.1c-.163-1.241-.177-4.114-.177-4.963,0-.938.07-3.491.161-4.507l.008-.1Z" transform="translate(-24.52 -7.254)" fill="#1a1818" fill-rule="evenodd"></path><path id="Path_82392" data-name="Path 82392" d="M143.427,40.228c.092,1.021.161,3.567.161,4.5,0,.855-.011,3.727-.176,4.967l-.014.1,5.611,0c2.74,0,5.675-.7,5.675-2.652,0-1.225-1.113-2.132-3.193-2.632,1.524-.323,2.563-1.169,2.563-2.145,0-1.592-2.293-2.2-4.442-2.236l-6.192-.007Zm4.338.983h0c2.345.008,3.219.4,3.219,1.416a.956.956,0,0,1-.319.717,3.48,3.48,0,0,1-2.447.605h-.058l-.644,1.359h.656a4.238,4.238,0,0,1,2.984.855,1.2,1.2,0,0,1,.4.873c0,1.078-1.167,1.627-3.48,1.627-.392,0-1.022,0-1.42-.022-.083-1.414-.085-3.342-.085-3.912,0-.681.034-2.173.1-3.457a7.948,7.948,0,0,1,1.1-.062" transform="translate(-25.923 -7.254)" fill="#1a1818" fill-rule="evenodd"></path><path id="Path_82393" data-name="Path 82393" d="M165.7,40.126h-2.262l-.023.05c-.665,1.46-4.921,8.871-5.276,9.482l-.077.134h2.887l.02-.061c.247-.656.573-1.4.952-2.213.1,0,2.379-.03,2.379-.03l1.965.025s.343.006.431.006c.522,1.036.9,1.826,1.071,2.215l.025.058h3.337l-5.377-9.666Zm-1.387,2.848c.27.455.953,1.749,1.736,3.27l-.253.008-1.485.02-1.766-.028c.621-1.227,1.236-2.332,1.769-3.27" transform="translate(-28.573 -7.254)" fill="#1a1818" fill-rule="evenodd"></path><path id="Path_82394" data-name="Path 82394" d="M175.034,42.561c0,1.7,2.138,2.386,4.026,3,1.466.472,2.975.966,2.975,1.774a.762.762,0,0,1-.238.6,3.145,3.145,0,0,1-2.2.431,12.53,12.53,0,0,1-3.782-.855l-.592-.219,0,.375V49.4l.385.067.236.039a18.2,18.2,0,0,0,3.4.388c3.546,0,5.662-1.122,5.662-3,0-1.741-2.185-2.439-4.114-3.052-1.421-.456-2.893-.922-2.893-1.667,0-.213,0-.861,1.82-.861a11.127,11.127,0,0,1,3.418.682l.7.222-.009-.362V40.1l-.687-.1a19.9,19.9,0,0,0-3.01-.282c-3.048,0-5.1,1.143-5.1,2.843" transform="translate(-31.642 -7.18)" fill="#1a1818" fill-rule="evenodd"></path></g></svg>