<svg xmlns="http://www.w3.org/2000/svg" xmlns:xlink="http://www.w3.org/1999/xlink" id="Group_76728" data-name="Group 76728" width="84.184" height="34.512" viewBox="0 0 84.184 34.512"><defs><clipPath id="clip-path"><rect id="Rectangle_7330" data-name="Rectangle 7330" width="84.184" height="34.512" fill="none"></rect></clipPath></defs><g id="Group_76727" data-name="Group 76727" transform="translate(0 0)" clip-path="url(#clip-path)"><path id="Path_82314" data-name="Path 82314" d="M11.183,14.172c.189.091,1.315,1.278,1.552,1.514l2.291,2.293a4.076,4.076,0,0,0,.821.72,1.887,1.887,0,0,0,2.525-2.637A19.441,19.441,0,0,0,16.86,14.49L14.569,12.2a8.091,8.091,0,0,1-.752-.78c1.754-.15,3.486.4,4.366-.563a1.909,1.909,0,0,0-.9-3.1,29.524,29.524,0,0,0-4.775.007,1.932,1.932,0,0,0-1.262,1.2,4.6,4.6,0,0,1-2.461,2.515c-1.666.651-1.389,1.754-1.389,3.558,0,1.534-.336,3.156,1.2,3.783a1.923,1.923,0,0,0,1.937-.315,2.018,2.018,0,0,0,.65-1.812c0-.839,0-1.679,0-2.518" transform="translate(4.653 4.839)" fill="#002d75" fill-rule="evenodd"></path><path id="Path_82315" data-name="Path 82315" d="M4.789,11.469l-3.022,3.07a12.884,12.884,0,0,0-1.5,1.581,1.888,1.888,0,0,0,2.6,2.557,4.431,4.431,0,0,0,.809-.731c.53-.53,3.7-3.757,3.878-3.84.026.8,0,1.668-.011,2.469-.015.958,0,1.389.563,1.908a1.934,1.934,0,0,0,3.091-.953,29.309,29.309,0,0,0-.029-4.8A1.885,1.885,0,0,0,9.922,11.5a4.825,4.825,0,0,1-1.488-1.015C7.177,9.231,7.655,8.206,6.222,7.767a29.781,29.781,0,0,0-4.783-.029,1.9,1.9,0,0,0-.968,3.08c.876,1.079,2.774.47,4.318.651" transform="translate(0.011 4.838)" fill="#002d75" fill-rule="evenodd"></path><path id="Path_82316" data-name="Path 82316" d="M0,17.577v.106l1.327,0-.79,4.2h.62l.821-4.189,1.342-.011.091-.547H.093Z" transform="translate(0 10.829)" fill="#002d75" fill-rule="evenodd"></path><path id="Path_82317" data-name="Path 82317" d="M33.859,19.927l-.01-6.592c2.59-.026,6.838-.5,6.825,3.279a2.918,2.918,0,0,1-2.02,3.019,17.046,17.046,0,0,1-4.795.294m0-10.024-.011-5.97a17.434,17.434,0,0,1,4.31.219,2.533,2.533,0,0,1,1.776,2.755,2.841,2.841,0,0,1-1.847,2.681,12.568,12.568,0,0,1-4.227.315M29.389,23.441c1.315.039,2.688,0,4.01,0,3.639,0,7.248.362,10.022-2.128a6.329,6.329,0,0,0,1.851-5.973c-.455-2.213-1.985-3.292-3.9-3.92a.6.6,0,0,1-.086-.029l-.088-.057a6.189,6.189,0,0,0,2.184-1.5,4.909,4.909,0,0,0,1.188-2.517A5.618,5.618,0,0,0,42.6,1.985,8.945,8.945,0,0,0,36.79.417c-2.455,0-4.932-.034-7.383,0-.07.287-.021,5.005-.021,5.72V17.656c0,1.9-.06,3.9,0,5.785" transform="translate(18.556 0.254)" fill="#002d75" fill-rule="evenodd"></path><path id="Path_82318" data-name="Path 82318" d="M22.751,3.955c.718-.036,1.565-.013,2.293,0,1.95.026,3.574,1.005,3.576,3.3a2.9,2.9,0,0,1-1.756,2.822,9.532,9.532,0,0,1-4.127.444ZM18.309,23.436l4.4,0c.078-.246.026-6.05.026-7.142a23.355,23.355,0,0,1,.011-2.371l1.16,0c.5.7,2.363,3.935,2.771,4.668.583,1.046,1.42,2.525,1.955,3.6.186.37.472.847.628,1.248h5.275c-.261-.912-3.734-6.8-4.315-7.768l-1.588-2.45a8.835,8.835,0,0,0,2.575-1.464,5.9,5.9,0,0,0,1.684-2.365,7.388,7.388,0,0,0-.916-6.455C30.81,1.411,29.051.648,26.4.43L18.324.415Z" transform="translate(11.571 0.262)" fill="#002d75" fill-rule="evenodd"></path><path id="Path_82319" data-name="Path 82319" d="M49.257.234H47.728c-.15.049-1.017.1-1.279.137-2.559.377-4.979,1.573-5.843,4.248a7.721,7.721,0,0,0,.273,4.974c1.839,3.938,6.9,3.555,8.4,6.019a3.013,3.013,0,0,1,.2,2.381c-.937,2.7-5.247,2.066-7.491,1.327-.335-.111-.772-.317-1.064-.388l-1.01,4.1a15.44,15.44,0,0,0,2.8.534c2.807.369,6.19.294,8.548-1.1a6.222,6.222,0,0,0,3-3.706,7.3,7.3,0,0,0-.605-5.56c-1.825-3-6.737-3.62-8.1-5.275a2.407,2.407,0,0,1-.256-2.59c1-2.007,5.247-1.368,7.1-.555.2.086.4.206.584.266.08-.132.948-3.69.981-4.011-.315-.051-.728-.2-1.079-.284A20.134,20.134,0,0,0,50.517.347C50.282.32,49.392.278,49.257.234" transform="translate(25.221 0.148)" fill="#002d75" fill-rule="evenodd"></path><path id="Path_82320" data-name="Path 82320" d="M13.89,7.768c.168-.362,4.191-4.011,4.537-4.633a1.9,1.9,0,0,0-2.61-2.57c-.57.351-4.255,4.313-4.681,4.57-.024-.8.021-1.656.02-2.468,0-.979-.044-1.361-.6-1.888A1.921,1.921,0,0,0,8.662.424C7.068.973,7.415,2.686,7.415,4.131c0,1.774-.308,2.911,1.343,3.608a4.593,4.593,0,0,1,2.468,2.507,1.729,1.729,0,0,0,1.239,1.222,28.929,28.929,0,0,0,4.8.024,1.885,1.885,0,0,0,.942-3.067,2.008,2.008,0,0,0-1.831-.654c-.819,0-1.673.023-2.487,0" transform="translate(4.666 0.179)" fill="#002d75" fill-rule="evenodd"></path><path id="Path_82321" data-name="Path 82321" d="M0,1.961V2.4c.054.132.073.341.14.5a2.992,2.992,0,0,0,.867,1.062L4.53,7.49c.158.155.228.181.3.351-1.009.036-2.2-.1-3.171-.01C.274,7.955.176,8.995,0,9.333v.62c.193.421.137.764.754,1.237a2.3,2.3,0,0,0,1.674.385,17.646,17.646,0,0,0,3.946-.162,1.945,1.945,0,0,0,1.01-1.028A4.758,4.758,0,0,1,9.211,8.128c.516-.325,1.12-.488,1.348-.694.907-.819.672-1.96.672-3.39s.232-2.619-.738-3.362a1.885,1.885,0,0,0-2.765.571,3.519,3.519,0,0,0-.25,1.789c0,.681.011,1.371,0,2.051L3.122.771A1.925,1.925,0,0,0,1.849.314,1.9,1.9,0,0,0,.225,1.3,6.422,6.422,0,0,0,0,1.961" transform="translate(0 0.188)" fill="#002d75" fill-rule="evenodd"></path><path id="Path_82322" data-name="Path 82322" d="M19.11,21.348l.31-1.647c.765-.091,1.808-.008,1.477.966-.222.653-1,.778-1.787.681m.419-2.159a11.621,11.621,0,0,1,.243-1.387c.039-.158.051-.139.222-.145a1.98,1.98,0,0,1,1.082.15c.357.29.047.927-.194,1.11a2.022,2.022,0,0,1-1.353.273m-1.167,2.7c1.087.028,2.389.184,3.022-.778a1.453,1.453,0,0,0,.235-1.036.829.829,0,0,0-.224-.436c-.149-.153-.235-.147-.4-.259.263-.2.934-.419.92-1.346-.015-1.144-1.64-.911-2.647-.893Z" transform="translate(11.605 10.815)" fill="#002d75" fill-rule="evenodd"></path><path id="Path_82323" data-name="Path 82323" d="M8.533,19.274c.039-.317.116-.638.175-.95.033-.165.057-.308.085-.455.046-.248.049-.214.328-.214.6,0,1.317.1.971.965-.251.635-.914.687-1.559.654m-.219-2.125c-.075.131-.885,4.366-.912,4.751.759,0,.6.1.712-.477.036-.184.069-.366.1-.552.055-.3.122-.824.207-1.085.157,0,.109.013.188.18.263.557.808,1.446,1,1.926l.759.01c-.1-.379-1.138-1.97-1.159-2.185.9-.16,1.756-.69,1.6-1.758a.975.975,0,0,0-.9-.8,8.017,8.017,0,0,0-1.608-.008" transform="translate(4.678 10.815)" fill="#002d75" fill-rule="evenodd"></path><path id="Path_82324" data-name="Path 82324" d="M49.223,19.057c-.024,1.169-1.386,3.119-1.829,2.327a2.21,2.21,0,0,1,.258-1.777,1.294,1.294,0,0,1,1.572-.55M49,20.82a10.026,10.026,0,0,0-.3,1.216l.6,0,.978-5.129-.632,0c-.083.4-.157.823-.23,1.232-.122.677-.01.207-1,.382a2.027,2.027,0,0,0-1.568,1.4c-.243.689-.408,2.073.459,2.184a1.358,1.358,0,0,0,1.059-.4,2.363,2.363,0,0,0,.328-.4c.062-.091.1-.149.15-.235Z" transform="translate(29.482 10.679)" fill="#002d75" fill-rule="evenodd"></path><path id="Path_82325" data-name="Path 82325" d="M1.97,22.032l.632,0a6.788,6.788,0,0,1,.442-1.694c.6-1.381,1.464-1.6,1.557-1.043.064.372-.379,2.1-.449,2.735l.622,0c.114-.659.646-2.686.41-3.2-.277-.6-1.275-.47-1.833.271-.121.162-.263.428-.392.573.036-.209.132-.447.191-.661.064-.232.1-.45.152-.692.078-.413.235-1.02.264-1.42l-.61,0Z" transform="translate(1.245 10.68)" fill="#002d75" fill-rule="evenodd"></path><path id="Path_82326" data-name="Path 82326" d="M11.508,23.253h.465a2.565,2.565,0,0,0,1.32-.942,13.176,13.176,0,0,0,1.7-2.771,11.135,11.135,0,0,0,.684-1.572l-.581-.155a22.444,22.444,0,0,1-1.546,3.24,10.085,10.085,0,0,0-.377-3.1l-.692-.008c.02.3.233.986.3,1.364.217,1.175.519,2.776-.661,3.3-.353.157-.477,0-.762.034l-.1.543Z" transform="translate(7.118 11.258)" fill="#002d75" fill-rule="evenodd"></path><path id="Path_82327" data-name="Path 82327" d="M32.179,18.548l-.687,0-.119.485.69.016c0,.237-.413,2.254-.49,2.659a3.98,3.98,0,0,1-.343,1.237c-.248.41-.632.37-1.2.3l-.142.537c2.189.277,2.131-1.084,2.518-3.145.086-.459.188-1.177.315-1.59l.922,0,.113-.493-.934-.007c.1-1.377.873-1.12,1.425-1.1l.144-.49a1.779,1.779,0,0,0-1.6.227,2,2,0,0,0-.615,1.356" transform="translate(18.89 10.653)" fill="#002d75" fill-rule="evenodd"></path><path id="Path_82328" data-name="Path 82328" d="M23.326,18.429A3.851,3.851,0,0,1,22.75,20.1a2.67,2.67,0,0,1-.491.623c-.178.147-.555.374-.741.086-.261-.4-.147-2.763,1.808-2.378m-.191,1.687c-.054.4-.286.852-.343,1.31l.628,0,.645-3.453c-1.849-.4-3.027.286-3.264,1.949-.116.816,0,1.782,1.017,1.544.633-.147,1.017-.793,1.317-1.348" transform="translate(13.123 11.288)" fill="#002d75" fill-rule="evenodd"></path><path id="Path_82329" data-name="Path 82329" d="M16.576,18.427a4.239,4.239,0,0,1-.6,1.673,2.526,2.526,0,0,1-.5.62c-.947.867-1.085-.844-.473-1.745a1.358,1.358,0,0,1,1.572-.548m-.219,1.72c-.054.392-.3.842-.326,1.278l.6,0c.059-.139.651-3.323.64-3.458a3.07,3.07,0,0,0-2.249.224,2.329,2.329,0,0,0-.984,1.666c-.134.821-.054,1.812.96,1.621.731-.137,1.061-.885,1.356-1.327" transform="translate(8.843 11.288)" fill="#002d75" fill-rule="evenodd"></path><path id="Path_82330" data-name="Path 82330" d="M44.476,18.436a3.855,3.855,0,0,1-1.036,2.252c-1.237,1.123-1.131-1.7.06-2.213a1.364,1.364,0,0,1,.976-.039M44.3,20.11c-.069.406-.305.855-.348,1.312l.594,0c.073-.127.672-3.279.65-3.463a3.182,3.182,0,0,0-2.255.23c-1.229.808-1.539,3.652.039,3.272.632-.153,1.027-.823,1.32-1.35" transform="translate(26.485 11.291)" fill="#002d75" fill-rule="evenodd"></path><path id="Path_82331" data-name="Path 82331" d="M25.521,22.027l.63,0,.339-1.787c.008.007.018.008.021.021l.054.07c.17.261.61,1.3.858,1.684l.749.018c-.114-.375-.969-1.67-1.02-1.947.17-.139,1.382-1.255,1.456-1.379l-.413-.336c-.289.1-1.315,1.4-1.632,1.572l.563-3.045-.625,0Z" transform="translate(16.129 10.679)" fill="#002d75" fill-rule="evenodd"></path><path id="Path_82332" data-name="Path 82332" d="M10.274,20.109c0-1.841,2.014-2.3,2.007-.886-.008,1.865-2.006,2.3-2.007.925Zm1-2.2a2.088,2.088,0,0,0-1.621,1.857c-.193,1.217.387,1.963,1.648,1.687,1.981-.431,2.446-4.064-.028-3.545" transform="translate(6.078 11.283)" fill="#002d75" fill-rule="evenodd"></path><path id="Path_82333" data-name="Path 82333" d="M30.132,18.434c1.487-.369,1.072,2.234-.111,2.484-.875.186-1.053-.53-.9-1.258a1.493,1.493,0,0,1,1.007-1.226m-.059-.529a2.244,2.244,0,0,0-1.359,3.246c.731.72,2.657.39,3-1.547.212-1.2-.406-1.958-1.64-1.7" transform="translate(17.958 11.283)" fill="#002d75" fill-rule="evenodd"></path><path id="Path_82334" data-name="Path 82334" d="M38.656,18.431c1.482-.336,1.061,2.208-.106,2.482-.891.209-1.069-.511-.907-1.258a1.5,1.5,0,0,1,1.013-1.224M38.6,17.9a2.244,2.244,0,0,0-1.366,3.261c.659.685,2.667.393,2.993-1.539.206-1.208-.385-1.978-1.627-1.722" transform="translate(23.342 11.283)" fill="#002d75" fill-rule="evenodd"></path><path id="Path_82335" data-name="Path 82335" d="M45.262,19.073l0-.026,0-.051,0-.026c0-.02.029-.106.041-.14a4.9,4.9,0,0,0,.22-.9l-.592-.01-.674,3.509.628,0c.46-2.947,1.839-3.411,2-2.768.1.4-.4,2.056-.437,2.773l.6,0a14.532,14.532,0,0,0,.307-1.549,3.457,3.457,0,0,0,.124-1.627c-.287-.687-1.6-.522-2.206.823" transform="translate(27.965 11.284)" fill="#002d75" fill-rule="evenodd"></path><path id="Path_82336" data-name="Path 82336" d="M24.069,19.117a7.152,7.152,0,0,0,.289-1.191h-.592l-.667,3.5.615,0a9.542,9.542,0,0,1,.437-1.65c.573-1.307,1.436-1.7,1.567-1.128a24.606,24.606,0,0,1-.437,2.783l.614,0c.118-.481.209-1.069.307-1.581a3.182,3.182,0,0,0,.1-1.634c-.269-.54-1.18-.514-1.854.318-.144.178-.246.406-.38.583" transform="translate(14.598 11.282)" fill="#002d75" fill-rule="evenodd"></path><path id="Path_82337" data-name="Path 82337" d="M33.28,21.276a2.031,2.031,0,0,0-.134.617c2.223.529,3.125-1.245,2.44-2.136-.341-.442-1.237-.725-1.227-1.353a.781.781,0,0,1,.573-.7,2.086,2.086,0,0,1,1.11.036l.114-.557a2.252,2.252,0,0,0-2.017.344,1.293,1.293,0,0,0-.127,1.841c.354.361,1.286.645,1.082,1.39a.841.841,0,0,1-.671.6,1.95,1.95,0,0,1-1.142-.082" transform="translate(20.948 10.792)" fill="#002d75" fill-rule="evenodd"></path><path id="Path_82338" data-name="Path 82338" d="M5.18,19.4c.122-.814,1.049-1.31,1.436-.935.475.463-.444,1.012-1.436.935m1.611,1.86-.007-.47c-.439.044-.765.277-1.333.145-.421-.1-.48-.6-.351-1.053.922-.028,2.159-.23,2.246-1.124.111-1.139-1.5-1.058-2.1-.506a2.28,2.28,0,0,0-.659,1c-.274.809-.429,2.1.752,2.226a2.864,2.864,0,0,0,1.456-.217" transform="translate(2.773 11.287)" fill="#002d75" fill-rule="evenodd"></path><path id="Path_82339" data-name="Path 82339" d="M40.27,17.265l-.207,1.116-.692,0-.111.5.687,0a20.453,20.453,0,0,1-.37,2.055c-.062.421-.031.761.273.917a1.8,1.8,0,0,0,1.11.015l.033-.052a1.4,1.4,0,0,0,.055-.465c-.929.072-.925.052-.747-.885.1-.5.176-1.118.307-1.578l.942-.01.09-.491-.929-.007.228-1.26Z" transform="translate(24.812 10.821)" fill="#002d75" fill-rule="evenodd"></path><path id="Path_82340" data-name="Path 82340" d="M37.328,21.3l0-.534c-.367.09-.9.287-1.255.011-.542-.426-.15-2.371,1.062-2.386a3.433,3.433,0,0,1,.645.116l.134-.543a2.011,2.011,0,0,0-2.657,1.575c-.411,1.723.534,2.277,2.073,1.761" transform="translate(22.221 11.295)" fill="#002d75" fill-rule="evenodd"></path><path id="Path_82341" data-name="Path 82341" d="M40.826,22.028l.632,0,.974-5.133-.627,0Z" transform="translate(25.802 10.679)" fill="#002d75" fill-rule="evenodd"></path><path id="Path_82342" data-name="Path 82342" d="M16.325,22.033l.628,0,.976-5.124L17.78,16.9l-.308,0h-.165Z" transform="translate(10.317 10.678)" fill="#002d75" fill-rule="evenodd"></path><path id="Path_82343" data-name="Path 82343" d="M49.8,2.162V.253h-.712V0H50.8V.253h-.713V2.162Zm1.289,0V0h.429l.511,1.531c.047.142.082.248.1.32.024-.078.062-.194.114-.348L52.773,0h.384V2.162h-.274V.353l-.632,1.81h-.258L51.368.32V2.162Z" transform="translate(31.027 0)" fill="#002d75" fill-rule="evenodd"></path></g></svg>