<svg xmlns="http://www.w3.org/2000/svg" xmlns:xlink="http://www.w3.org/1999/xlink" id="Group_76736" data-name="Group 76736" width="200.732" height="45" viewBox="0 0 200.732 45"><defs><clipPath id="clip-path"><rect id="Rectangle_7339" data-name="Rectangle 7339" width="200.732" height="45" fill="none"></rect></clipPath></defs><g id="Group_76735" data-name="Group 76735" transform="translate(0 0)" clip-path="url(#clip-path)"><path id="Path_82344" data-name="Path 82344" d="M174.273,25.094a1.688,1.688,0,1,1-1.191,2.879,1.7,1.7,0,0,1,0-2.387,1.619,1.619,0,0,1,1.189-.492m1.961,1.68a1.953,1.953,0,0,0-3.905,0,1.9,1.9,0,0,0,.568,1.387,1.956,1.956,0,0,0,2.765,0,1.9,1.9,0,0,0,.572-1.387M174.8,26.35a.329.329,0,0,1-.223.334,1.036,1.036,0,0,1-.363.048h-.344V25.96h.326a.987.987,0,0,1,.46.079.321.321,0,0,1,.144.312m-1.308-.656V27.84h.378V27h.3a.922.922,0,0,1,.421.069.53.53,0,0,1,.2.491v.17l.008.069.006.025,0,.021h.354l-.014-.026a.376.376,0,0,1-.018-.112c0-.057,0-.11,0-.16v-.156a.6.6,0,0,0-.115-.332.526.526,0,0,0-.367-.21.8.8,0,0,0,.31-.1.47.47,0,0,0,.209-.424.531.531,0,0,0-.335-.544,1.634,1.634,0,0,0-.587-.078Z" transform="translate(24.498 3.53)" fill="#e60c19" fill-rule="evenodd"></path><path id="Path_82345" data-name="Path 82345" d="M142.4,17.5q2.936,1.158,5.8,2.484a127.954,127.954,0,0,0-17.549,8.736q-2.839-1.494-5.766-2.818A121.652,121.652,0,0,1,142.4,17.5" transform="translate(17.753 2.487)" fill="#0056a3" fill-rule="evenodd"></path><path id="Path_82346" data-name="Path 82346" d="M136.138,15.258A100.611,100.611,0,0,0,118,23.041q2.755.99,5.448,2.129a103.314,103.314,0,0,1,17.6-8.24q-2.433-.9-4.914-1.672" transform="translate(16.775 2.169)" fill="#0056a3" fill-rule="evenodd"></path><path id="Path_82347" data-name="Path 82347" d="M154.356,18.03A106.807,106.807,0,0,0,138.961,12q-2.8.8-5.541,1.756a106.448,106.448,0,0,1,15.851,6.1q2.52-.966,5.085-1.827" transform="translate(18.967 1.706)" fill="#e60c19" fill-rule="evenodd"></path><path id="Path_82348" data-name="Path 82348" d="M161.417,15.855a116.1,116.1,0,0,0-15.684-5.533q-2.56.524-5.081,1.178a106.768,106.768,0,0,1,15.488,5.867q2.618-.81,5.278-1.512" transform="translate(19.995 1.467)" fill="#e60c19" fill-rule="evenodd"></path><path id="Path_82349" data-name="Path 82349" d="M174.61,18.987a136.731,136.731,0,0,0-35.434,18.052q4.045,2.484,7.888,5.262a143.668,143.668,0,0,1,33.6-19.884q-2.976-1.807-6.057-3.43" transform="translate(19.785 2.699)" fill="#e60c19" fill-rule="evenodd"></path><path id="Path_82350" data-name="Path 82350" d="M167.129,15.347a124.116,124.116,0,0,0-36.882,16.582q3.791,1.862,7.434,3.98a128.821,128.821,0,0,1,36.2-17.439q-3.322-1.669-6.749-3.124" transform="translate(18.516 2.182)" fill="#e60c19" fill-rule="evenodd"></path><path id="Path_82351" data-name="Path 82351" d="M44.678,3.931c3.215,0,4.814,2.363,4.814,5.56,0,3.323-1.534,5.642-4.814,5.642s-4.815-2.32-4.815-5.642c0-3.2,1.6-5.56,4.815-5.56m0,9.03c.852,0,1.235-.766,1.235-3.47,0-2.473-.255-3.389-1.235-3.389s-1.236.916-1.236,3.389c0,2.7.383,3.47,1.236,3.47" transform="translate(5.667 0.559)" fill="#0056a3" fill-rule="evenodd"></path><path id="Path_82352" data-name="Path 82352" d="M50.415,7.2H49.008V4.773h1.407V3.58c0-2.621,1.3-3.58,3.578-3.58A13.723,13.723,0,0,1,55.74.129V2.77a3.235,3.235,0,0,0-.638-.086c-.909,0-1.236.356-1.236,1V4.773H55.74V7.2H53.866v8.266h-3.45Z" transform="translate(6.967 0)" fill="#0056a3" fill-rule="evenodd"></path><path id="Path_82353" data-name="Path 82353" d="M15.7,7.189c0-.638-.3-1.063-.9-1.063-.826,0-1.091.785-1.13,1.406l-3-.618c.385-2.108,2.3-2.959,4.261-2.959,2.065,0,4.216.9,4.216,3.259v5.964c0,1.214.193,1.576.321,1.725H15.911c-.065-.3-.088-.8-.109-.98A3.856,3.856,0,0,1,13.177,15.1,2.848,2.848,0,0,1,10.2,11.975c.077-2.78,3.219-3.6,5.5-3.867Zm0,2.579c-1.206.115-2.11.573-2.11,1.939,0,.745.384,1.132,1,1.132a1.519,1.519,0,0,0,1.108-.665Z" transform="translate(1.45 0.562)" fill="#0056a3" fill-rule="evenodd"></path><path id="Path_82354" data-name="Path 82354" d="M23.251,7.258V14.9H19.8V4.211h3.375L23.192,5.3h.045a4.088,4.088,0,0,1,3.007-1.348,2.267,2.267,0,0,1,2.373,2.491V14.9h-3.45V7.538c0-.606-.219-.943-.795-.943a1.511,1.511,0,0,0-1.122.664" transform="translate(2.815 0.562)" fill="#0056a3" fill-rule="evenodd"></path><path id="Path_82355" data-name="Path 82355" d="M29.4.262h3.449v7.7h.042l2.539-3.227H38.86L35.974,8.025l2.9,7.4H35.3l-1.68-4.668h-.043l-.726.836v3.832H29.4Z" transform="translate(4.179 0.037)" fill="#0056a3" fill-rule="evenodd"></path><path id="Path_82356" data-name="Path 82356" d="M7.971,7.538a3.921,3.921,0,0,1,2.834,3.83c0,2.6-2.083,4.06-4.962,4.06H0V.262H5.993c2.69,0,4.452,1.609,4.452,3.705A3.648,3.648,0,0,1,7.971,7.42ZM3.725,12.614H5.131A1.762,1.762,0,0,0,7.064,10.7,1.76,1.76,0,0,0,5.131,8.824H3.725Zm0-6.346H4.98c1.385,0,1.936-.746,1.936-1.642,0-1.448-.978-1.681-1.849-1.681H3.725Z" transform="translate(0 0.037)" fill="#0056a3" fill-rule="evenodd"></path><path id="Path_82357" data-name="Path 82357" d="M116.814,7.189c0-.638-.3-1.063-.894-1.063-.827,0-1.092.785-1.13,1.406l-3-.618c.383-2.108,2.3-2.959,4.259-2.959,2.065,0,4.217.9,4.217,3.259v5.964c0,1.214.192,1.576.32,1.725h-3.557c-.063-.3-.086-.8-.106-.98A3.863,3.863,0,0,1,114.3,15.1a2.848,2.848,0,0,1-2.979-3.128c.074-2.78,3.217-3.6,5.5-3.867Zm0,2.579c-1.207.115-2.108.573-2.108,1.939,0,.745.383,1.132,1,1.132a1.515,1.515,0,0,0,1.108-.665Z" transform="translate(15.825 0.562)" fill="#0056a3" fill-rule="evenodd"></path><path id="Path_82358" data-name="Path 82358" d="M85.507,10.3c-.049.953.2,2.536,1.593,2.536a1.77,1.77,0,0,0,1.709-1.47l2.321.852a4.41,4.41,0,0,1-4.282,2.917c-3.3,0-4.793-2.661-4.793-5.623,0-3.023,1.577-5.579,4.75-5.579,3.323,0,4.474,2.853,4.474,5.646V10.3Zm2.577-2.043c.03-.994-.107-2.153-1.3-2.153-.98,0-1.332,1.143-1.277,2.153Z" transform="translate(11.665 0.559)" fill="#0056a3" fill-rule="evenodd"></path><rect id="Rectangle_7337" data-name="Rectangle 7337" width="3.449" height="10.692" transform="translate(112.249 4.773)" fill="#0056a3"></rect><rect id="Rectangle_7338" data-name="Rectangle 7338" width="3.449" height="3.067" transform="translate(112.249 0.299)" fill="#0056a3"></rect><path id="Path_82359" data-name="Path 82359" d="M108.767,8.168a4.1,4.1,0,0,0-.17-1.341,1,1,0,0,0-1-.725c-1.149,0-1.278,1.406-1.278,3.536,0,2.408.384,3.2,1.278,3.2,1.214,0,1.321-1.238,1.321-2.046l2.682.383c-.255,2.6-1.745,3.962-4.258,3.962-3.11,0-4.729-2.725-4.729-5.366,0-2.917,1.618-5.836,4.876-5.836a4.057,4.057,0,0,1,4.219,4.237Z" transform="translate(14.587 0.559)" fill="#0056a3" fill-rule="evenodd"></path><path id="Path_82360" data-name="Path 82360" d="M60.6.262h5.027l3.237,15.164H65.135l-.6-3.066H61.025l-.661,3.066H57.041Zm.959,9.415h2.449L62.916,3.5h-.078Z" transform="translate(8.109 0.037)" fill="#0056a3" fill-rule="evenodd"></path><path id="Path_82361" data-name="Path 82361" d="M91.373,4.211h3.339l.035,1.445H94.8a3.853,3.853,0,0,1,3.323-1.7V7.448a3.6,3.6,0,0,0-1.4-.3,2.365,2.365,0,0,0-1.9.83V14.9h-3.45Z" transform="translate(12.99 0.562)" fill="#0056a3" fill-rule="evenodd"></path><path id="Path_82362" data-name="Path 82362" d="M77.13,7.275V14.9H73.745V7.575c0-.576-.174-.958-.812-.958a1.656,1.656,0,0,0-1.17.659V14.9H68.379V4.211h3.367L71.763,5.3h.042A4.606,4.606,0,0,1,74.9,3.954,2.147,2.147,0,0,1,76.97,5.387h.042a4.2,4.2,0,0,1,3.078-1.433A2.274,2.274,0,0,1,82.5,6.379V14.9H79.112V7.575c0-.576-.172-.958-.8-.958a1.7,1.7,0,0,0-1.179.659" transform="translate(9.721 0.562)" fill="#0056a3" fill-rule="evenodd"></path></g></svg>